<?xml version="1.0" encoding="UTF-8"?>
<svg id="Layer_1" data-name="Layer 1" xmlns="http://www.w3.org/2000/svg" xmlns:xlink="http://www.w3.org/1999/xlink" viewBox="0 0 1000 1000">
  <defs>
    <style>
      .cls-1 {
        fill: url(#linear-gradient-2);
      }

      .cls-2 {
        fill: url(#linear-gradient-6);
      }

      .cls-3 {
        fill: url(#linear-gradient-5);
      }

      .cls-4 {
        fill: url(#linear-gradient-3);
      }

      .cls-5 {
        fill: url(#linear-gradient);
      }

      .cls-6 {
        fill: #151618;
      }

      .cls-7 {
        fill: url(#linear-gradient-4);
      }
    </style>
    <linearGradient id="linear-gradient" x1="293.13" y1="518.36" x2="293.13" y2="402.28" gradientUnits="userSpaceOnUse">
      <stop offset="0" stop-color="#46a64e"/>
      <stop offset="1" stop-color="#151618"/>
    </linearGradient>
    <linearGradient id="linear-gradient-2" x1="387.92" y1="518.36" x2="387.92" y2="402.28" xlink:href="#linear-gradient"/>
    <linearGradient id="linear-gradient-3" x1="611.51" y1="518.36" x2="611.51" y2="402.28" xlink:href="#linear-gradient"/>
    <linearGradient id="linear-gradient-4" x1="704.17" y1="518.36" x2="704.17" y2="402.28" xlink:href="#linear-gradient"/>
    <linearGradient id="linear-gradient-5" x1="495.89" y1="439.92" x2="493.17" y2="517.88" gradientUnits="userSpaceOnUse">
      <stop offset="0" stop-color="#46a64e"/>
      <stop offset=".13" stop-color="#439f4b"/>
      <stop offset=".31" stop-color="#3e8e45"/>
      <stop offset=".52" stop-color="#34713a"/>
      <stop offset=".75" stop-color="#264a2b"/>
      <stop offset=".99" stop-color="#151718"/>
      <stop offset="1" stop-color="#151618"/>
    </linearGradient>
    <linearGradient id="linear-gradient-6" x1="497.03" y1="505.97" x2="493.96" y2="410.99" xlink:href="#linear-gradient-5"/>
  </defs>
  <rect class="cls-6" y="0" width="1000" height="1000"/>
  <g>
    <path class="cls-5" d="m292.99,540.28c-2.73,0-5.38-.11-7.87-.32h-.08c-5.95-.52-11.3-1.63-15.89-3.33-5.73-2.12-11.1-4.89-15.98-8.27,4.16-3.85,8-7.82,11.45-11.83,4.29,3.1,8.66,5.44,13.03,6.96,4.92,1.7,10.18,2.57,15.64,2.57,4.16,0,7.7-.49,10.52-1.44,1.08-.36,2.12-.82,3.08-1.38,3.54-2.05,5.33-4.91,5.33-8.51,0-2.62-1.08-4.77-3.21-6.39-1.61-1.23-3.54-2.19-5.9-2.96l-.36-.11c-.29-.09-.58-.18-.88-.25-2.64-.73-6.28-1.56-11.12-2.56-6.27-1.23-11.59-2.51-15.83-3.79-.74-.23-1.46-.46-2.16-.69-4.42-1.47-8.28-3.95-11.47-7.36-3.13-3.34-4.66-7.84-4.66-13.75,0-5.06,1.57-9.45,4.81-13.4,2.78-3.42,6.64-6.25,11.5-8.42.93-.41,1.7-.73,2.44-1,6.11-2.3,13.29-3.46,21.36-3.46s14.8,1.01,20.8,3c5.09,1.69,9.63,3.91,13.52,6.62-3.97,3.73-7.67,7.62-11.05,11.57-3.1-2.08-6.35-3.72-9.66-4.88-3.94-1.38-8.52-2.08-13.61-2.08-6.08,0-10.63.94-13.91,2.89l-.21.13c-.19.12-.38.24-.56.37-3,1.99-4.55,4.72-4.55,8.06,0,2.48,1.09,4.53,3.23,6.11.26.19.51.37.78.52,1.66,1.09,3.81,2.02,6.3,2.7,2.69.74,6.34,1.58,11.14,2.57,3.87.8,7.38,1.61,10.43,2.4,2.97.77,5.44,1.49,7.55,2.2,4.43,1.49,8.3,3.91,11.51,7.21,3.08,3.17,4.64,7.61,4.64,13.18s-1.62,10.17-4.82,14.21c-2.56,3.21-6,5.88-10.23,7.94-1.17.57-2.41,1.1-3.7,1.57-2.91,1.08-6.11,1.91-9.53,2.49-3.66.61-7.64.92-11.83.92Z"/>
    <path class="cls-1" d="m343.3,528.59l45.07-76.4,25.37,43.11,19.28,32.78,5.29,8.82c-7.44.06-14.82.12-22.11.2l-7.99-15.03h-40.61l-8.15,15.85c-7.4.13-14.75.28-21.93.44l5.77-9.77Zm29.33-18.77h30.61l-15.4-28.63-15.21,28.63Z"/>
    <path class="cls-4" d="m644.96,538.18c-21.22-.44-43.71-.79-66.89-1.04.47-13.03.9-26.92.9-40.71,0-15.5-.31-30.91-.91-45.84h65.25v14.1h-46.11v20.73h43.86v13.85h-43.86v23.89h47.76v15.02Z"/>
    <path class="cls-7" d="m746.83,541.41c-8.04-.34-16.58-.67-25.96-1.01l-38.79-47.79v46.57c-6.74-.18-13.6-.36-20.57-.53v-88.06h39.05c13.03,0,23.32,2.33,30.59,6.93,7.11,4.51,10.57,10.98,10.57,19.79,0,6.79-2.23,12.09-6.8,16.18-4.64,4.15-11.44,6.96-20.19,8.36l-3,.48,35.1,39.08Zm-64.74-49.3h13.07c8.55,0,14.67-1.02,18.71-3.11,4.33-2.25,6.53-5.9,6.53-10.85,0-4.66-1.94-8.21-5.76-10.55-3.6-2.21-8.95-3.29-16.33-3.29h-16.23v27.79Z"/>
  </g>
  <g>
    <path class="cls-3" d="m495.37,513.38c13.88-17.19,21.33-37.42,21.33-58.61,0-2.93-.13-5.83-.37-8.68-6.42-.87-13.17-1.33-20.12-1.33-.27,0-.56,0-.84.01-.27-.01-.56-.01-.84-.01-6.95,0-13.7.46-20.12,1.33-.25,2.86-.37,5.76-.37,8.68,0,21.19,7.46,41.41,21.33,58.61Z"/>
    <path class="cls-2" d="m554.99,435.1c-6.61-2.8-13.79-5.09-21.39-6.85-6.87-1.59-14.05-2.74-21.45-3.42,2.13,6.84,3.55,13.95,4.18,21.26,7.15.95,13.91,2.39,20.12,4.27.06,1.47.09,2.94.09,4.41,0,26.45-9.36,50.49-25.1,70.28-.94,1.17-1.89,2.34-2.87,3.48-4.04,4.75-8.45,9.2-13.2,13.37-4.75-4.17-9.16-8.63-13.2-13.37-.98-1.14-1.93-2.31-2.87-3.48-15.74-19.79-25.1-43.82-25.1-70.28,0-1.47.03-2.94.09-4.41,6.22-1.88,12.97-3.32,20.12-4.27.63-7.31,2.05-14.42,4.18-21.26-7.4.68-14.58,1.83-21.45,3.42-7.6,1.76-14.79,4.05-21.39,6.85-.91,6.43-1.38,13-1.38,19.68,0,1.36.03,2.71.06,4.05.66,21.41,6.53,41.93,17.08,60.51,4.28,7.52,9.32,14.71,15.09,21.54,1.1,1.3,2.24,2.58,3.39,3.85,3.32,3.65,6.87,7.2,10.63,10.6,1.67,1.51,3.39,3.01,5.15,4.47,3.1,2.57,6.3,5.03,9.61,7.37,3.3-2.34,6.51-4.8,9.61-7.37,1.76-1.46,3.48-2.96,5.15-4.47,3.76-3.4,7.31-6.95,10.63-10.6,1.15-1.27,2.29-2.55,3.39-3.85,5.77-6.82,10.8-14.02,15.09-21.54,10.54-18.58,16.42-39.1,17.08-60.51.03-1.34.06-2.7.06-4.05,0-6.68-.48-13.24-1.38-19.68Z"/>
  </g>
</svg>